<svg xmlns="http://www.w3.org/2000/svg" version="1.1" xmlns:xlink="http://www.w3.org/1999/xlink" xmlns:svgjs="http://svgjs.dev/svgjs" width="1440" height="560" preserveAspectRatio="none" viewBox="0 0 1440 560"><g mask="url(&quot;#SvgjsMask1012&quot;)" fill="none"><rect width="1440" height="560" x="0" y="0" fill="rgba(131, 160, 233, 0.34)"></rect><path d="M0,445.383C102.002,465.135,207.97,512.598,304.108,473.202C404.121,432.218,477.852,336.599,514.02,234.745C548.939,136.406,507.954,32.299,497.54,-71.535C486.58,-180.818,518.009,-303.798,451.26,-391.019C383.968,-478.949,257.295,-483.98,153.143,-521.558C41.439,-561.86,-71.84,-664.08,-181.888,-619.455C-293.839,-574.058,-296.093,-414.742,-361.205,-312.986C-414.491,-229.712,-513.416,-173.675,-529.551,-76.138C-545.772,21.921,-501.391,121.003,-446.73,204.015C-396.834,279.792,-316.619,325.334,-236.796,368.462C-162.27,408.728,-83.163,429.279,0,445.383" fill="rgba(116, 148, 230, 0.34)"></path><path d="M1440 1251.27C1567.039 1262.53 1680.948 1164.876 1770.152 1073.726 1848.717 993.447 1863.305 876.767 1907.546 773.521 1950.518 673.237 2020.891 584.649 2026.414 475.68600000000004 2032.609 353.46799999999996 2026.53 213.327 1940.347 126.447 1854.522 39.928 1707.597 80.36900000000003 1593.037 38.80499999999995 1467.481-6.749000000000024 1370.752-141.80600000000004 1237.859-128.428 1103.183-114.87 1004.881 3.8700000000000045 917.045 106.85700000000003 829.737 209.226 721.639 325.241 736.928 458.913 752.323 593.512 912.37 655.062 992.2629999999999 764.475 1051.753 845.946 1077.141 944.107 1145.432 1018.356 1231.923 1112.392 1312.736 1239.99 1440 1251.27" fill="rgba(147, 172, 236, 0.34)"></path></g><defs><mask id="SvgjsMask1012"><rect width="1440" height="560" fill="#ffffff"></rect></mask></defs></svg>