<svg xmlns="http://www.w3.org/2000/svg" version="1.1" xmlns:xlink="http://www.w3.org/1999/xlink" xmlns:svgjs="http://svgjs.dev/svgjs" width="1440" height="560" preserveAspectRatio="none" viewBox="0 0 1440 560"><g mask="url(&quot;#SvgjsMask1077&quot;)" fill="none"><rect width="1440" height="560" x="0" y="0" fill="rgba(38, 120, 207, 1)"></rect><path d="M0,493.605C90.647,469.739,120.216,357.002,187.468,291.706C238.061,242.584,317.941,222.701,345.757,157.902C373.43,93.438,345.947,21.081,333.259,-47.915C321.068,-114.212,301.452,-175.522,273.191,-236.721C234.687,-320.101,222.725,-434.68,138.136,-470.449C55.043,-505.585,-38.992,-445.563,-118.089,-402.174C-185.863,-364.996,-226.892,-298.857,-278.91,-241.677C-332.442,-182.832,-411.175,-139.29,-427.975,-61.533C-445.017,17.342,-393.879,91.556,-367.376,167.775C-337.886,252.584,-331.005,350.948,-263.829,410.527C-193.424,472.97,-91.005,517.565,0,493.605" fill="#2472c5"></path><path d="M1440 1001.9069999999999C1533.9279999999999 986.213 1633.646 1035.933 1719.83 995.424 1810.226 952.935 1872.498 867.267 1916.853 777.7719999999999 1962.167 686.342 1975.159 585.303 1973.659 483.271 1971.983 369.278 1992.4360000000001 231.003 1907.693 154.74200000000002 1821.665 77.32499999999999 1679.83 153.949 1569.3600000000001 119.44099999999997 1455.777 83.96100000000001 1379.865-61.561000000000035 1261.76-47.028999999999996 1145.637-32.740999999999985 1069.217 86.745 1010.87 188.15699999999998 958.726 278.788 970.865 386.96299999999997 952.81 489.953 934.046 596.989 878.361 699.477 902.666 805.392 929.361 921.723 980.751 1059.189 1092.845 1100.184 1208.129 1142.346 1318.926 1022.137 1440 1001.9069999999999" fill="#2a7ed8"></path></g><defs><mask id="SvgjsMask1077"><rect width="1440" height="560" fill="#ffffff"></rect></mask></defs></svg>