<svg width="312" height="57" viewBox="0 0 312 57" fill="none" xmlns="http://www.w3.org/2000/svg">
<path d="M91.4573 24.5427C91.7547 24.6054 92.104 24.3107 92.232 23.8893C92.232 23.8893 92.232 23.8893 92.312 23.896C92.9 23.9427 92.7467 23.5334 92.932 23.3454C93.5147 22.7534 94.1347 22.188 94.7027 21.588C94.8653 21.4173 94.892 21.1653 95.008 20.9613C95.1 20.796 95.1893 20.568 95.3586 20.5014C96.8013 19.9427 96.8013 19.9427 96.8013 19.9427C97.604 18.78 98.468 17.532 98.7173 17.1734C98.9666 16.8134 100.387 16.2947 100.54 16.048C100.695 15.8027 101.344 14.98 101.565 14.728C101.787 14.4747 102.585 13.652 102.765 13.4C102.944 13.1454 103.955 12.564 104.149 12.4014C104.345 12.2387 104.769 11.596 104.369 11.6227C103.971 11.648 103.012 11.944 102.455 12.016C101.899 12.0854 100.651 13.076 100.304 13.1734C99.9546 13.272 98.3267 13.82 97.444 14.1707C97.444 14.1707 97.444 14.1707 96.6413 14.4774C95.8813 14.768 95.8813 14.768 95.8813 14.768C95.124 15.2254 93.4747 16.1627 92.216 16.852C90.9587 17.5413 86.2573 19.844 84.7506 20.6533C84.7506 20.6533 84.7507 20.6534 83.3947 21.4134C82.1293 22.1214 80.8826 22.8533 79.6146 23.5573C78.8213 23.9987 78.8213 23.9987 78.8213 23.9987C77.9867 24.5227 76.476 25.3747 75.4667 25.8933C74.456 26.412 71.1653 28.4187 70.1693 28.9613C69.1747 29.5027 65.612 31.8133 64.2654 32.6507C64.2654 32.6507 64.2653 32.6507 62.9613 33.312C61.6987 33.952 61.6987 33.952 61.6987 33.952C60.4254 34.7773 58.528 35.956 57.4786 36.5707C56.432 37.1867 53.5413 38.9987 53.368 39.2147C53.1946 39.4294 51.888 39.7827 51.496 40.144C51.496 40.144 51.496 40.144 50.8667 40.32C50.3 40.48 50.3 40.48 50.3 40.48C49.7653 40.872 49.0986 41.324 48.8173 41.484C48.536 41.644 47.34 42.2507 46.8013 42.5C46.8013 42.5 46.8013 42.5 46.3387 42.756C45.8173 43.0453 45.8173 43.0454 45.8173 43.0454C45.2666 43.388 43.9613 44.104 42.916 44.6387C41.8693 45.172 38.5586 46.7533 37.9533 47.0587C37.348 47.364 35.2467 48.3613 34.652 48.6267C34.652 48.6267 34.652 48.6267 34.1187 48.8747C33.632 49.1014 33.632 49.1014 33.632 49.1014C33.052 49.2707 32.46 49.5747 32.3133 49.7787C32.168 49.9814 30.84 50.092 30.3107 50.192C30.3107 50.192 30.3107 50.192 29.828 50.3094C29.296 50.4414 29.296 50.4414 29.296 50.4414C28.712 50.58 28.024 50.7213 27.7654 50.7547C27.5067 50.7907 26.7493 51.04 26.6173 51.1267C26.6173 51.1267 26.6173 51.1267 26.608 51.12C26.2307 50.8 25.872 50.7534 25.3506 50.976C25.072 51.096 24.6547 51.0373 24.2907 51.1293C23.9067 51.2253 23.4573 51.1507 23.0346 51.1507C22.5546 51.1507 22.5547 51.1507 22.5547 51.1507C22.0267 51.156 21.216 51.0987 20.7547 51.024C20.2947 50.948 18.5893 50.2347 17.844 49.8573C17.844 49.8573 17.844 49.8574 17.7387 49.048C17.692 48.6947 17.692 48.6947 17.692 48.6947C17.1573 48.3333 16.8067 48.0133 16.9133 47.984C17.0187 47.9547 17.184 47.52 16.9733 47.1014C16.9733 47.1014 16.9733 47.1014 16.6333 46.88C16.2947 46.66 16.2947 46.66 16.2947 46.66C16.0133 46.3747 15.7546 46.1254 15.72 46.104C15.6853 46.084 15.5 45.7467 15.2987 45.3814C15.096 45.0174 14.0853 43.16 13.544 42.0414C13.544 42.0414 13.544 42.0414 13.44 40.916C13.2853 39.2267 13.2853 39.2267 13.2853 39.2267C14.0667 37.5613 14.7546 36.168 14.8146 36.1333C14.8146 36.1333 14.8147 36.1333 14.8253 36.092C14.9187 35.732 14.9187 35.732 14.9187 35.732C15.0107 35.3333 15.2547 34.7613 15.4613 34.4613C15.4613 34.4613 15.4614 34.4614 15.6907 34.204C15.9507 33.9134 16.16 33.584 16.3387 33.2507C16.7027 32.5733 16.7027 32.5734 16.7027 32.5734C17.2547 31.8987 17.8906 30.9293 18.1146 30.4213C18.1146 30.4213 18.1147 30.4214 18.3907 29.9814C18.976 29.048 18.976 29.048 18.976 29.048C19.6786 28.0427 20.4067 26.9067 20.596 26.5227C20.7867 26.1387 21.0933 25.064 20.8213 25.1374C20.8213 25.1374 20.8213 25.1373 20.6093 25.2333C19.4866 25.7467 19.4866 25.7467 19.4866 25.7467C18.26 26.3227 16.4133 27.224 15.3813 27.7467C14.3493 28.268 11.22 29.936 10.5947 30.1307C10.5947 30.1307 10.5947 30.1307 10.036 30.3307C9.98133 30.3507 9.98131 30.3507 9.98131 30.3507C10.032 30.5987 9.62531 31.008 9.07597 31.2573C8.52664 31.508 6.72 32.2893 6.36933 32.428C6.36933 32.428 6.36931 32.428 6.21731 32.3467C5.26131 31.832 5.26132 31.832 5.26132 31.832C5.09199 32.484 4.66935 32.9534 4.32135 32.8747C3.97202 32.796 2.81731 32.944 2.51731 33.136C2.21731 33.328 1.50664 32.7853 1.91198 32.364C2.31597 31.944 3.99336 31.6267 3.52936 31.3867C3.52936 31.3867 3.52933 31.3867 3.26399 31.2694C2.97333 31.14 2.68267 31.104 2.63867 31.4667C2.59733 31.8307 2.59733 31.8307 2.59733 31.8307C2.28933 31.7747 1.32669 31.16 0.460022 30.464C0.460022 30.464 0.460004 30.464 1.408 29.7267C1.832 29.396 1.75999 29.204 1.59199 28.8213C1.49065 28.5893 1.49069 28.5893 1.49069 28.5893C1.76669 28.1453 2.06665 27.9134 2.15865 28.072C2.25065 28.2307 2.75467 28.5147 3.10533 28.3973C3.10533 28.3973 3.10534 28.3974 3.37734 28.248C3.53067 28.164 3.53066 28.164 3.53066 28.164C3.63333 27.9933 3.54002 27.7894 3.32402 27.7107C3.32402 27.7107 3.324 27.7107 3.13333 27.6333C3.08266 27.612 3.08268 27.612 3.08268 27.612C2.99201 27.5294 3.30664 26.904 3.78131 26.2213C3.78131 26.2213 3.78131 26.2213 4.27864 25.6227C4.41331 25.4613 4.41334 25.4613 4.41334 25.4613C4.74534 25.3933 5.26797 25.288 5.57597 25.2267C5.57597 25.2267 5.57601 25.2267 5.51868 24.9147C5.44401 24.5134 5.68002 24.4067 6.12936 24.432C6.28002 24.4413 6.58267 24.3267 6.57734 24.3027C6.36001 23.2974 7.68268 23.552 8.05201 23.0747C8.18001 22.9107 8.18001 22.9107 8.18001 22.9107C8.32934 22.724 8.68667 22.4453 8.972 22.2933C8.972 22.2933 8.97203 22.2933 9.23203 22.156C9.56403 21.9813 9.91469 21.828 10.2267 21.6333C10.8587 21.2413 10.8587 21.2414 10.8587 21.2414C11.6107 20.888 12.5773 20.4053 13.0027 20.1653C13.428 19.9267 14.728 19.224 15.2333 19.3227C15.2333 19.3227 15.2333 19.3227 15.528 18.828C15.7267 18.496 16.1613 18.2453 16.528 17.9947C16.736 17.8547 17.0333 17.6907 17.2693 17.7107C17.8187 17.756 17.8187 17.756 17.8187 17.756C18.196 17.5067 19.708 16.8053 21.1786 16.1987C21.1786 16.1987 21.1787 16.1987 22.6547 16.2707C23.2987 16.3027 23.2987 16.3027 23.2987 16.3027C23.972 16.2587 24.876 16.2187 25.3053 16.2147C25.7373 16.2094 27.4893 16.16 28.248 16.0787C28.248 16.0787 28.248 16.0787 28.8733 16.4467C28.9026 16.4627 29.112 16.1587 29.3747 16.392C29.8613 16.8253 29.8613 16.8253 29.8613 16.8253C30.432 17.2747 31.0093 17.716 31.1426 17.8054C31.1426 17.8054 31.1427 17.8053 31.1267 17.8533C30.752 18.9213 32.0214 19.5067 32.2934 20.412C32.492 21.0694 32.492 21.0694 32.492 21.0694C33.2867 21.6774 33.984 22.412 34.044 22.6987C34.044 22.6987 34.044 22.6987 34.144 22.8827C34.752 23.992 34.752 23.992 34.752 23.992C34.2147 25.0813 32.9813 27.0733 32.0146 28.4173C32.0146 28.4173 32.0146 28.4174 31.8506 29.8747C31.8466 29.9134 31.7307 29.9467 31.7333 29.9787C31.7707 30.5014 31.7706 30.5014 31.7706 30.5014C31.404 30.9467 30.7786 31.7653 30.3813 32.3213C30.3813 32.3213 30.3814 32.3214 30.0627 32.844C29.7654 33.3294 29.552 33.848 29.252 34.3307C28.9507 34.8187 28.9506 34.8187 28.9506 34.8187C28.5706 35.336 28.1227 35.9987 27.9574 36.2933C27.792 36.5853 27.084 37.8 26.7654 38.3387C26.7654 38.3387 26.7653 38.3387 26.44 38.812C26.2506 39.088 25.7573 39.5267 25.8 39.5587C26.3067 39.9613 25.656 40.1973 25.6107 40.5C25.568 40.7933 25.568 40.7933 25.568 40.7933C25.232 41.156 25.2173 41.4213 25.5333 41.384C25.5333 41.384 25.5333 41.384 25.7413 41.296C26.6013 40.928 26.6013 40.928 26.6013 40.928C27.4413 40.3933 28.4333 39.768 28.8053 39.5387C29.1787 39.3094 30.9386 38.7547 31.0013 38.7427C31.064 38.7294 31.4174 38.524 31.7627 38.3454C32.1094 38.1654 33.356 37.3867 33.8987 37.0933C34.4427 36.8 36.2867 35.852 36.808 35.6573C37.332 35.464 38.416 34.5293 38.468 34.492C38.52 34.456 38.9253 34.3267 39.2533 34.2027C39.5826 34.08 40.668 33.484 41.004 33.3613C41.3386 33.236 42.1947 32.6174 42.328 32.5094C42.464 32.4014 43.116 32.252 43.264 32.1387C43.264 32.1387 43.264 32.1387 43.4066 32.0293C43.6466 31.8467 43.908 31.6774 44.1346 31.4827C44.6373 31.0547 45.5373 31.0947 45.908 30.596C46.3573 29.9893 46.3573 29.9893 46.3573 29.9893C47.1267 29.6853 48.028 29.28 48.36 29.0867C48.6934 28.896 49.9054 28.3253 50.3267 28.256C50.3267 28.256 50.3266 28.256 50.3506 27.7814C50.3586 27.6387 50.3587 27.6387 50.3587 27.6387C50.8093 27.5094 51.4053 27.3507 51.6813 27.2853C51.956 27.22 52.912 26.6187 53.372 26.344C53.8347 26.0707 55.6747 24.896 56.5187 24.4014C57.3613 23.9067 60.2707 22.1614 61.1294 21.6387C61.9854 21.1147 64.9866 19.3187 65.8786 18.7973C66.7706 18.2733 69.6773 16.508 70.3706 16.0507C70.3706 16.0507 70.3706 16.0507 71.0173 15.6533C71.0413 15.6387 71.0413 15.6387 71.0413 15.6387C71.228 15.7934 71.6493 15.7014 71.9786 15.4334C72.308 15.1654 73.3173 14.5947 73.5893 14.68C73.5893 14.68 73.5893 14.68 73.6693 14.6213C74.2 14.2387 74.4467 13.6987 75.1413 13.3414C75.764 13.0227 76.4533 12.804 77.0613 12.472C77.628 12.1627 77.628 12.1627 77.628 12.1627C78.2453 11.816 79.392 11.196 80.176 10.7853C80.96 10.372 83.4187 9.15068 83.824 8.83068C84.2307 8.50935 85.9413 7.75601 86.4387 7.56268C86.936 7.36935 88.4747 6.66402 88.7827 6.47069C88.7827 6.47069 88.7826 6.47068 89.0173 6.26001C89.276 6.02801 89.5427 5.8787 89.9467 5.94937C90.4413 6.03337 90.4413 6.03335 90.4413 6.03335C90.608 5.71468 90.82 5.47736 90.9146 5.50936C91.008 5.54136 91.336 5.40803 91.4373 5.14136C91.4373 5.14136 91.4373 5.14136 91.508 5.14536C92.1547 5.18403 92.404 4.56669 92.7813 4.53735C93.2986 4.50002 93.788 4.14803 94.332 4.38003C94.384 4.4027 94.384 4.40269 94.384 4.40269C94.4253 4.44669 94.6973 4.30668 94.9866 4.09201C95.276 3.87734 96.632 3.44401 97.016 3.29334C97.4 3.14134 98.676 2.64936 98.996 2.54136C99.316 2.43203 100.621 2.43336 101.087 2.44269C101.087 2.44269 101.087 2.44269 101.261 1.93469C101.328 1.74402 101.916 1.63201 102.288 1.55467C103.44 1.32001 104.551 0.948027 105.775 0.942693C106.244 0.94136 106.629 0.429339 107.205 0.754673C107.768 1.07201 108.037 0.47201 108.457 0.458676C108.933 0.441343 108.933 0.441359 108.933 0.441359C109.457 0.576025 110.38 0.721348 110.985 0.764015C111.591 0.806682 113.429 0.856012 113.739 0.728012C113.739 0.728012 113.739 0.728033 113.868 1.14937C113.893 1.2307 114.411 1.1347 114.757 1.21603C116.188 1.5507 116.188 1.55067 116.188 1.55067C116.968 2.54534 117.623 3.43468 117.64 3.52668C117.64 3.52668 117.64 3.52668 117.596 3.55868C116.933 4.03734 117.537 4.44667 117.755 4.82401C118.065 5.36134 118.312 5.91067 118.587 6.45334C118.989 7.24667 118.989 7.2467 118.989 7.2467C119.672 8.0347 120.457 9.07467 120.735 9.55467C120.735 9.55467 120.735 9.55469 120.421 10.1027C120.141 10.5907 120.067 11.156 119.899 11.688C119.857 11.8187 119.855 11.9854 119.752 12.076C118.577 13.104 118.577 13.104 118.577 13.104C117.823 14.488 116.72 16.2774 116.128 17.0787C116.128 17.0787 116.128 17.0787 115.395 17.6387C114.517 18.3094 114.517 18.3094 114.517 18.3094C113.632 19.0987 112.849 19.7667 112.779 19.7933C112.779 19.7933 112.779 19.7933 112.771 19.8253C112.472 21.1413 112.472 21.1414 112.472 21.1414C111.168 22.016 109.911 22.9347 109.677 23.184C109.445 23.4333 108.175 24.4187 107.516 24.9134C107.516 24.9134 107.516 24.9134 107.267 25.5787C107.219 25.7054 107.219 25.7054 107.219 25.7054C107.123 25.8307 106.748 26.1867 106.387 26.496C106.027 26.8067 104.481 28.1347 103.803 28.796C103.124 29.4573 100.899 31.5507 100.433 32.0467C99.9693 32.5414 98.3107 34.2267 97.8947 34.7547C97.4787 35.284 96.1 36.8933 95.776 37.16C95.776 37.16 95.776 37.16 95.4827 37.4067C94.9587 37.848 94.4533 38.2853 94.0387 38.82C93.748 39.1987 93.748 39.1987 93.748 39.1987C93.244 39.5733 92.7107 40.008 92.5654 40.164C92.5654 40.164 92.5653 40.164 92.4813 40.332C92.1693 40.964 92.1693 40.964 92.1693 40.964C91.4227 41.5853 90.7933 42.16 90.7693 42.24C90.7693 42.24 90.7693 42.24 90.8027 42.2947C90.8493 42.3747 90.8493 42.3747 90.8493 42.3747C90.968 42.468 90.7453 42.8973 90.3573 43.3293C89.968 43.76 88.6387 45.0293 88.3053 45.1987C87.9707 45.368 88.048 46.3134 87.9493 46.4347C87.9493 46.4347 87.9493 46.4347 87.852 46.5494C86.888 47.6774 86.888 47.6774 86.888 47.6774C86.204 49.072 85.6387 50.34 85.6333 50.4933C85.6267 50.648 85.8067 51.156 86.032 51.0814C86.2587 51.0054 87.06 50.976 87.3866 51.004C87.3866 51.004 87.3867 51.004 87.7294 50.8747C88.4334 50.612 88.4333 50.612 88.4333 50.612C89.2533 50.3854 90.5826 50.008 91.3866 49.7734C91.3866 49.7734 91.3866 49.7734 92.0786 49.504C92.548 49.3187 93.0133 49.2053 93.4773 49.056C94.1467 48.84 94.1467 48.84 94.1467 48.84C94.4813 49.1067 94.8933 49.2187 95.06 49.0867C95.228 48.9573 95.6253 48.5814 95.5773 48.536C95.528 48.492 95.444 48.2333 95.7187 48.26C95.9933 48.2893 96.76 48.3654 96.7866 48.368C96.7866 48.368 96.7867 48.368 96.8 48.2973C96.8547 47.9973 96.8547 47.9973 96.8547 47.9973C97.1133 47.7613 97.5866 47.4427 97.9066 47.2907C98.2253 47.1373 100.007 46.6054 100.969 46.0787C100.969 46.0787 100.969 46.0787 101.184 46C101.351 45.94 101.648 46.1 101.799 46.0307C101.951 45.964 101.959 45.7093 102.097 45.5867C102.144 45.5453 102.468 45.62 102.541 45.708C102.728 45.932 102.728 45.932 102.728 45.932C102.885 46.2347 103.225 46.3693 103.484 46.232C103.743 46.0933 104.372 45.7213 104.357 45.6867C104.341 45.6507 104.095 45.5853 103.845 45.62C103.595 45.6533 103.013 45.58 103.103 45.3827C103.195 45.1867 104.283 45.0014 104.908 45.0027C104.908 45.0027 104.908 45.0027 105.151 44.36C105.244 44.112 106.055 43.7734 106.173 43.8494C106.835 44.2787 106.835 44.2787 106.835 44.2787C107.148 43.884 107.808 43.4027 108.3 43.208C108.3 43.208 108.3 43.208 108.307 43.0227C108.333 42.3013 108.333 42.3014 108.333 42.3014C108.819 42.5454 109.429 42.5573 109.691 42.3267C109.691 42.3267 109.691 42.3267 109.939 42.1293C110.279 41.8613 110.916 41.8373 111.24 41.5627C111.5 41.3413 112.028 42.1934 111.996 41.3787C111.991 41.2307 112.579 41.1054 112.656 40.908C112.864 40.3827 112.864 40.3827 112.864 40.3827C113.328 40.4934 113.864 40.4627 114.056 40.3134C114.247 40.1654 114.888 39.8947 115.049 40.044C115.212 40.1947 115.941 39.472 116.424 39.1547C116.907 38.8387 118.203 37.996 118.301 38.04C118.399 38.0854 118.804 38.0907 118.787 37.852C118.787 37.852 118.787 37.852 118.828 37.6787C118.856 37.5627 118.856 37.5627 118.856 37.5627C118.972 37.4493 119.245 37.5347 119.461 37.756C119.679 37.9773 120.291 37.1414 120.701 37.0774C120.701 37.0774 120.701 37.0773 120.687 36.5867C120.676 36.2813 121.275 37.1547 121.404 36.384C121.497 35.832 121.497 35.832 121.497 35.832C121.952 36.1827 122.428 36.4694 122.556 36.472C122.684 36.4734 123.14 36.3134 123.055 36.116C122.971 35.9187 123.031 35.4053 123.373 35.396C123.716 35.3853 124.483 34.4307 125.024 34.0774C125.564 33.7227 127.407 33.224 127.372 32.8987C127.372 32.8987 127.372 32.8987 127.524 32.8054C128.011 32.5107 128.011 32.5107 128.011 32.5107C128.62 32.2974 129.404 31.9107 129.752 31.6494C130.101 31.3907 131.393 31.276 131.475 31.08C131.475 31.08 131.475 31.08 131.425 31.052C130.944 30.788 130.944 30.788 130.944 30.788C131.252 30.5893 131.857 30.2974 132.287 30.1387C132.716 29.9787 133.784 29.3347 133.96 29.396C133.96 29.396 133.96 29.396 134.135 29.4094C134.416 29.432 134.416 29.432 134.416 29.432C134.752 29.3373 134.931 29.224 134.812 29.1827C134.695 29.1414 134.541 28.988 134.788 28.9547C135.035 28.9187 135.776 28.8053 135.857 28.3987C135.936 27.992 137.14 27.52 137.188 27.6147C137.188 27.6147 137.188 27.6147 137.215 27.7387C137.245 27.876 137.245 27.876 137.245 27.876C137.243 27.94 137.355 27.9 137.496 27.7853C137.637 27.6707 138.065 27.3213 138.067 27.3213C138.067 27.3213 138.149 27.0667 138.392 26.8787C138.633 26.6907 139.459 26.1147 139.741 26.0454C140.023 25.976 140.341 25.28 140.472 25.1787C140.601 25.0774 141.569 24.7653 142.051 24.4933C142.051 24.4933 142.051 24.4934 142.503 24.476C143.093 24.4547 143.039 23.9134 143.081 23.936C144.161 24.5427 144.161 24.5427 144.161 24.5427C144.404 23.804 145.125 22.8734 145.761 22.4774C145.761 22.4774 145.761 22.4774 146.384 22.1387C146.821 21.9027 147.168 21.308 147.915 21.7774C148.003 21.8334 148.441 21.624 148.617 21.464C149.247 20.8907 149.993 20.4773 150.879 20.2253C150.961 20.2013 150.961 20.2014 150.961 20.2014C151.236 20.484 151.528 20.5067 151.609 20.252C151.691 19.9987 152.667 19.3813 153.045 19.1907C153.045 19.1907 153.045 19.1907 153.473 19.4414C153.492 19.452 153.492 19.452 153.492 19.452C153.627 19.3347 153.621 19.02 153.483 18.7507C153.483 18.7507 153.483 18.7507 153.869 18.8947C154.387 19.0853 154.749 19.0667 154.876 18.6653C155.068 18.06 155.544 17.868 156.171 18.0014C156.908 18.156 156.496 17.312 157.111 17.3867C157.517 17.4347 157.943 17.3893 158.359 17.3613C158.416 17.3573 158.455 17.2067 158.508 17.128C158.844 16.6227 158.844 16.6227 158.844 16.6227C159.511 16.5587 160.523 16.6173 161.092 16.7533C161.092 16.7533 161.092 16.7533 161.077 16.0573C161.076 16.0173 161.369 15.9494 161.532 15.9334C161.957 15.8947 162.532 16.096 162.549 15.4533C162.551 15.4133 162.963 15.3694 163.187 15.3454C163.504 15.3094 163.956 15.4747 163.928 14.972C163.925 14.9027 163.925 14.9027 163.925 14.9027C164.029 14.8267 164.573 14.5227 165.132 14.224C165.691 13.9253 167.677 13.9427 167.956 13.7667C168.236 13.5907 169.661 13.3627 170.427 13.42C170.427 13.42 170.427 13.42 170.971 13.2134C171.531 13 171.531 13 171.531 13C171.983 13.1387 172.568 13.192 172.829 13.1173C173.092 13.0427 174.295 12.924 174.888 12.8307C174.888 12.8307 174.888 12.8307 175.301 13.2774C175.365 13.348 175.644 13.2867 175.824 13.288C176.528 13.2933 176.528 13.2933 176.528 13.2933C177.187 13.576 178.157 14.0134 178.687 14.2667C178.687 14.2667 178.687 14.2667 179.104 14.6027C179.611 15.008 179.905 15.4 179.816 15.9947C179.787 16.192 179.787 16.192 179.787 16.192C179.967 16.4267 180.196 16.7293 180.299 16.8613C180.401 16.996 180.596 18.3013 180.679 18.488C180.679 18.488 180.679 18.488 180.792 18.6414C181.049 18.9974 181.336 19.3387 181.596 19.6933C181.721 19.864 181.679 20.4067 181.607 20.624C181.523 20.8787 181.123 21.112 181.577 21.4267C181.705 21.5173 181.705 21.5173 181.705 21.5173C181.617 21.8747 181.463 22.1067 181.361 22.032C181.259 21.96 180.92 21.892 180.807 22.028C180.695 22.1627 180.643 22.6947 180.64 23.1667C180.64 23.1667 180.64 23.1667 180.531 23.5893C180.433 23.972 180.433 23.972 180.433 23.972C180.128 24.2734 179.621 24.7507 179.307 25.032C178.993 25.3133 178.859 26.3774 178.584 26.472C178.311 26.5654 177.863 27.7374 177.265 28.3814C177.265 28.3814 177.265 28.3814 176.9 29.068C176.369 30.064 176.369 30.064 176.369 30.064C175.763 31.1533 175.269 32.224 175.272 32.44C175.275 32.6574 174.58 32.8134 174.596 33.0027C174.615 33.192 173.532 34.0613 172.921 34.888C172.921 34.888 172.921 34.888 172.945 35.8054C172.955 36.1467 172.495 36.1107 172.437 36.2C172.093 36.736 172.093 36.736 172.093 36.736C171.849 37.3774 171.796 38.024 171.973 38.1734C171.973 38.1734 171.973 38.1734 171.549 38.2374C171.44 38.2534 171.24 38.284 171.24 38.3094C171.219 39.2294 170.477 39.916 170.092 40.7147C169.989 40.9267 170.027 41.1974 170.061 41.436C170.128 41.8947 170.128 41.8947 170.128 41.8947C170.693 41.8933 171.54 41.796 172.009 41.6774C172.479 41.5574 174.052 41.48 174.451 41.7347C174.451 41.7347 174.451 41.7347 174.871 41.244C175.079 41.0014 175.501 40.8814 175.825 40.704C175.884 40.672 176.835 40.38 176.865 40.408C177.101 40.616 177.101 40.616 177.101 40.616C177.388 40.5347 177.775 40.18 177.961 39.828C178.145 39.4747 179.327 39.9267 179.421 39.8467C179.421 39.8467 179.421 39.8467 179.427 39.7694C179.463 39.1547 180.245 39.3614 180.317 39.4454C180.839 40.0454 181.268 39.4893 181.677 39.388C182.043 39.2987 182.043 39.2987 182.043 39.2987C182.34 39 182.589 38.6734 182.597 38.5707C182.605 38.4694 182.571 38.172 182.64 38.064C182.712 37.9547 183.049 37.6933 183.252 37.7253C183.457 37.7573 184.205 37.7054 184.401 37.7387C184.595 37.7707 185.149 37.696 185.073 37.4573C184.996 37.2173 184.984 36.5253 185.241 36.5253C185.499 36.5253 186.156 36.4267 186.225 36.3067C186.295 36.188 186.623 36.128 186.803 36.436C186.803 36.436 186.803 36.436 187.377 36.048C187.633 35.876 187.633 35.876 187.633 35.876C187.968 35.748 188.684 35.448 189.224 35.2107C189.224 35.2107 189.224 35.2107 189.195 34.6454C189.191 34.576 189.424 34.436 189.545 34.4374C189.664 34.4387 189.808 34.5653 189.892 34.664C190.052 34.852 190.052 34.852 190.052 34.852C190.216 35.1 190.515 35.1147 190.715 34.8814C190.715 34.8814 190.715 34.8813 190.909 34.72C191.009 34.6347 191.284 34.6214 191.301 34.5494C191.328 34.4174 191.328 34.4173 191.328 34.4173C191.328 34.2667 191.415 34.18 191.521 34.2227C191.627 34.2667 191.98 34.2307 191.915 33.968C191.848 33.704 191.856 33.0854 192.153 33.4787C192.153 33.4787 192.153 33.4787 192.357 33.5067C192.564 33.5334 192.564 33.5333 192.564 33.5333C192.821 33.3307 193.664 32.6387 194.436 31.996C194.436 31.996 194.436 31.996 195.216 31.4907C195.363 31.396 195.548 31.5334 195.529 31.7387C195.524 31.8107 195.524 31.8107 195.524 31.8107C195.387 31.92 195.488 32.0094 195.751 32.0094C196.011 32.0094 196.708 31.9027 196.728 31.7694C196.747 31.6387 196.929 31.2467 197.084 31.2467C197.24 31.2467 197.764 31.072 197.792 30.8587C197.82 30.6453 198.081 30.056 198.305 30.056C198.528 30.056 199.376 29.8147 199.624 29.5213C199.871 29.2253 200.763 28.5707 200.881 28.5853C200.881 28.5853 200.881 28.5853 200.984 28.62C201.191 28.688 201.479 28.8773 201.576 28.824C201.917 28.6387 201.917 28.6387 201.917 28.6387C202.228 28.36 202.773 27.7507 203.129 27.2853C203.129 27.2853 203.129 27.2853 204.407 26.9947C204.513 26.9707 204.691 26.8613 204.679 26.8253C204.381 25.9333 204.381 25.9333 204.381 25.9333C205.225 25.6133 206.151 25.4147 206.437 25.4893C206.437 25.4893 206.437 25.4894 206.653 25.6094C206.929 25.7627 207.069 26.0427 207.541 25.8147C208.175 25.5107 208.175 25.5107 208.175 25.5107C208.251 25.1254 208.996 24.8187 209.831 24.8293C209.831 24.8293 209.831 24.8293 210.271 24.1853C210.28 24.1693 210.627 24.372 210.753 24.3347C211.656 24.068 211.656 24.068 211.656 24.068C211.699 23.2614 212.273 22.6667 212.933 22.7467C212.933 22.7467 212.933 22.7467 212.945 22.832C213.001 23.22 213.001 23.22 213.001 23.22C213.328 23.204 213.924 23.0093 214.324 22.7853C214.324 22.7853 214.324 22.7853 214.004 22.5173C213.564 22.1493 213.947 22.028 214.168 21.8827C214.659 21.5614 214.659 21.5613 214.659 21.5613C215.241 21.2373 215.916 21.104 216.156 21.264C216.399 21.4253 217.413 21.3334 217.128 21.2814C216.843 21.2294 216.204 20.9773 216.305 20.8333C216.409 20.6893 217.205 20.5187 217.799 20.6707C217.799 20.6707 217.799 20.6707 218.045 20.0307C218.261 19.4747 218.857 19.876 219.239 19.74C219.488 19.6507 219.488 19.6507 219.488 19.6507C219.76 19.5 220.045 19.4814 220.12 19.6094C220.195 19.7374 220.536 19.8947 220.732 19.708C220.928 19.5227 220.491 19.06 220.824 19.1094C221.157 19.1587 221.521 18.368 221.789 18.312C222.059 18.256 222.801 18.0614 222.844 18.0147C222.844 18.0147 222.844 18.0147 222.895 18.0027C223.495 17.8707 224.251 18.2467 224.709 17.684C225.011 17.3147 225.011 17.3147 225.011 17.3147C225.271 16.8707 225.805 16.872 226.199 17.316C226.199 17.316 226.199 17.316 226.417 16.3667C226.511 15.968 227.157 15.5067 227.976 15.616C228.196 15.644 228.484 15.4467 228.709 15.3147C228.993 15.148 229.219 14.9107 229.513 14.7613C230.44 14.2933 230.44 14.2933 230.44 14.2933C231.003 14.7547 231.756 14.8893 232.116 14.5893C232.116 14.5893 232.116 14.5894 232.461 14.34C232.535 14.2854 232.709 14.308 232.836 14.3173C233.657 14.3787 233.657 14.3787 233.657 14.3787C233.803 13.9934 233.812 13.376 233.676 13.0054C233.676 13.0054 233.676 13.0053 234.265 13.0187C234.567 13.024 234.567 13.024 234.567 13.024C234.853 12.9667 235.201 12.8613 235.341 12.7933C235.341 12.7933 235.341 12.7933 235.349 12.72C235.388 12.3573 235.388 12.3573 235.388 12.3573C235.701 12.4107 235.848 12.6094 235.712 12.8014C235.712 12.8014 235.712 12.8013 235.767 12.856C235.944 13.0293 236.195 13.1654 236.448 13.268C236.484 13.284 236.695 13.0454 236.801 12.9134C236.908 12.776 237.065 12.6187 237.051 12.4814C237.036 12.3534 236.609 12.1667 237.073 12.1347C237.545 12.1 237.545 12.1 237.545 12.1C238.112 12.2054 238.583 12.1547 238.595 11.988C238.605 11.8213 238.727 11.3054 238.835 11.244C238.835 11.244 238.835 11.244 238.936 11.24C239.297 11.224 239.66 11.2107 240.019 11.2387C240.875 11.3014 240.875 11.3014 240.875 11.3014C241.075 10.972 241.404 10.7334 241.609 10.7707C241.815 10.8067 242.383 10.8613 242.767 10.6907C242.767 10.6907 242.767 10.6907 243.028 11.1173C243.056 11.1613 243.056 11.1613 243.056 11.1613C243.504 11.048 244.045 10.7547 244.257 10.5107C244.257 10.5107 244.257 10.5107 244.491 10.4427C244.861 10.3347 244.861 10.3347 244.861 10.3347C245.328 10.3494 245.916 10.3173 246.172 10.2653C246.427 10.212 246.605 10.7907 246.677 10.7973C246.748 10.804 247.361 10.7307 247.901 10.6747C248.44 10.6187 249.705 11.2387 249.4 11.2387C249.093 11.2387 248.753 11.644 249.189 12.14C249.189 12.14 249.189 12.14 249.947 11.5987C250.272 11.3667 251.299 11.9387 251.205 12.3027C251.056 12.8854 251.056 12.8853 251.056 12.8853C251.18 13.4907 251.565 14.312 251.912 14.712C251.912 14.712 251.912 14.712 252.187 15.0947C252.468 15.4853 252.753 15.8827 252.94 16.3054C253.08 16.6227 253.372 17.088 252.515 17.1253C252.461 17.1267 252.368 17.44 252.4 17.5947C252.441 17.8133 252.613 18.016 252.665 18.2347C252.687 18.3227 252.687 18.3227 252.687 18.3227C252.565 18.444 252.412 18.5067 252.347 18.4613C252.281 18.416 251.963 18.416 251.968 18.688C251.968 18.688 251.968 18.688 251.957 18.868C251.935 19.26 251.935 19.26 251.935 19.26C251.607 19.5627 251.051 20.0454 250.697 20.336C250.345 20.6254 249.735 21.6747 249.632 21.74C249.528 21.8054 249.336 22.0947 249.175 22.296C249.013 22.4973 248.259 22.8733 248.552 22.9227C248.844 22.972 248.928 23.6453 248.148 24.32C248.148 24.32 248.148 24.32 247.959 25.1573C247.888 25.472 247.587 25.0387 247.503 25.08C247.291 25.1787 247.291 25.1787 247.291 25.1787C247.109 25.3614 246.885 25.6307 246.793 25.7734C246.699 25.9174 246.747 26.3627 246.548 26.4213C246.352 26.48 245.86 26.688 245.991 26.7227C246.121 26.7573 246.524 27.1894 246.361 27.5374C246.2 27.8854 244.995 28.3107 245.079 28.7293C245.079 28.7293 245.079 28.7293 244.96 29.064C244.897 29.24 244.412 29.384 244.097 29.4134C243.668 29.4534 243.745 29.664 243.637 29.8853C243.356 30.4733 243.356 30.4734 243.356 30.4734C242.929 31.0747 242.527 31.7267 242.464 31.9253C242.4 32.1253 242.037 32.4773 241.969 32.2853C241.899 32.092 240.945 32.172 240.628 32.316C240.628 32.316 240.628 32.316 240.817 32.5173C241.128 32.844 241.128 32.844 241.128 32.844C240.84 32.904 240.599 33.0453 240.591 33.1573C240.591 33.1573 240.591 33.1573 240.608 33.256C240.656 33.532 240.74 33.8054 240.768 34.0814C240.801 34.4174 240.753 34.5973 240.223 34.7893C239.473 35.06 239.473 35.06 239.473 35.06C239.485 35.8227 239.463 36.5867 239.421 36.7587C239.38 36.9307 238.968 37.5067 238.663 37.8267C238.357 38.1467 237.621 39.0294 237.751 39.0734C237.881 39.116 238.233 39.316 238.019 39.348C237.803 39.3787 237.128 39.7094 237.08 40.0027C237.08 40.0027 237.08 40.0027 237.191 40.2454C237.285 40.4547 237.285 40.4547 237.285 40.4547C237.587 40.6333 237.755 40.8013 237.659 40.8267C237.564 40.8533 237.348 41.124 237.6 41.3147C237.852 41.5067 238.525 41.8907 238.623 41.8054C238.719 41.7187 239.072 41.54 239.155 41.632C239.239 41.724 239.932 41.9173 240.424 41.764C240.916 41.6107 242.161 41.068 242.305 41.2947C242.452 41.5213 243.236 41.2867 243.173 41.2293C243.111 41.1733 243.301 40.8613 243.835 40.752C244.368 40.644 245.821 40.4587 245.759 40.6014C245.696 40.7467 245.708 41.1654 245.983 41.0774C246.257 40.9867 246.88 40.7134 246.807 40.648C246.733 40.584 246.499 40.2653 246.704 40.3187C246.911 40.3707 247.384 40.4894 247.472 40.5107C247.563 40.5294 248.1 40.4987 248.471 40.3933C248.844 40.2893 249.484 39.7547 249.233 39.5347C248.98 39.316 249.863 39.1307 250.056 39.4747C250.056 39.4747 250.056 39.4747 250.54 39.5814C250.589 39.5907 250.589 39.5907 250.589 39.5907C250.643 39.648 250.843 39.424 251.033 39.092C251.224 38.7613 252.6 38.5173 252.917 38.4867C253.235 38.4573 254.037 37.8987 254.235 37.776C254.429 37.6534 255.236 38.0333 255.389 38.432C255.389 38.432 255.389 38.432 256.015 38.0454C256.256 37.896 256.256 37.896 256.256 37.896C256.785 37.852 256.775 37.744 256.236 37.656C256.236 37.656 256.236 37.656 255.963 37.4853C255.825 37.4013 255.825 37.4014 255.825 37.4014C255.888 37.0587 256.164 36.768 256.437 36.756C256.437 36.756 256.437 36.756 256.523 36.828C257.239 37.4387 257.239 37.4387 257.239 37.4387C257.412 36.9 257.859 36.724 258.235 37.0467C258.235 37.0467 258.235 37.0467 258.896 36.8014C259.344 36.6347 259.344 36.6347 259.344 36.6347C259.98 36.7054 260.559 36.756 260.628 36.7454C260.696 36.7347 261.319 35.944 261.595 35.7307C261.595 35.7307 261.595 35.7307 261.9 35.6147C262.008 35.5734 262.392 35.7467 262.399 35.8347C262.435 36.3334 262.435 36.3333 262.435 36.3333C262.836 36.2387 263.472 35.9613 263.851 35.7173C264.228 35.4733 265.24 34.8893 265.284 34.9667C265.328 35.0427 265.479 34.9813 265.485 34.596C265.485 34.596 265.485 34.596 265.917 34.352C266.153 34.2187 265.952 33.6733 266.516 33.8587C266.671 33.9093 266.669 34.26 266.756 34.4707C266.791 34.5547 266.791 34.5547 266.791 34.5547C266.855 34.6267 267.077 34.3507 267.285 33.9427C267.285 33.9427 267.285 33.9427 267.576 33.624C267.955 33.208 267.955 33.208 267.955 33.208C268.489 33.58 269.024 33.9827 269.144 34.104C269.144 34.104 269.144 34.104 269.271 34.116C269.579 34.1427 269.543 34.068 269.488 33.8134C269.433 33.5547 269.433 33.5547 269.433 33.5547C269.691 33.248 270.167 32.908 270.491 32.8014C270.813 32.6947 271.875 32.3533 272.176 32.2253C272.476 32.096 273.4 31.7893 273.575 31.9173C273.747 32.0427 274.2 32.34 274.236 32.324C274.269 32.308 274.315 32.1667 274.256 32.0427C274.199 31.9187 274.26 31.552 274.571 31.6054C274.879 31.6574 275.74 31.7013 275.643 31.5613C275.547 31.4187 275.616 30.952 275.956 30.756C275.956 30.756 275.956 30.756 276.26 30.6694C276.423 30.6227 276.796 30.692 276.829 30.7747C276.947 31.06 276.767 31.2213 276.368 31.1987C276.295 31.1947 276.295 31.1947 276.295 31.1947C276.127 31.3253 276.472 31.6053 277.064 31.8173C277.064 31.8173 277.064 31.8173 277.227 31.128C277.277 30.912 277.44 30.7094 277.58 30.5147C277.957 29.9854 277.957 29.9853 277.957 29.9853C278.54 30.0813 279.263 30.2107 279.565 30.2747C279.565 30.2747 279.565 30.2747 279.843 30.3027C279.915 30.3094 279.915 30.3094 279.915 30.3094C280.025 30.2094 280.019 30.1 279.899 30.0653C279.777 30.0307 279.459 29.8147 279.632 29.712C279.803 29.6107 280.364 29.448 280.405 29.632C280.445 29.8147 280.58 30.2427 280.631 30.2293C280.679 30.216 280.969 29.86 281.173 29.4653C281.173 29.4653 281.173 29.4654 281.727 29.9707C281.803 30.0387 281.803 30.0387 281.803 30.0387C282.359 29.8214 282.509 29.5453 282.136 29.4267C282.136 29.4267 282.136 29.4267 281.961 29.304C281.889 29.252 281.983 28.936 281.993 28.936C282.567 28.9507 283.139 28.9827 283.709 29.0307C283.729 29.032 283.716 29.212 283.741 29.304C283.752 29.344 283.752 29.344 283.752 29.344C283.839 29.4 284.068 29.2614 284.264 29.0374C284.46 28.8134 285.268 28.2867 285.545 28.452C285.545 28.452 285.545 28.452 285.752 28.6014C285.976 28.7627 285.976 28.7627 285.976 28.7627C286.237 28.984 286.557 29.0293 286.689 28.8653C286.819 28.7 287.349 28.3974 287.644 28.4694C287.644 28.4694 287.644 28.4693 287.905 28.4987C287.928 28.5013 288.043 28.2507 288.027 28.124C288.009 27.98 288.009 27.98 288.009 27.98C287.904 27.828 287.987 27.6934 288.192 27.68C288.192 27.68 288.192 27.68 288.297 27.7494C288.535 27.9107 288.857 28.1373 289.024 27.8653C289.387 27.2773 290.164 27.4653 290.679 27.1653C291.299 26.8053 291.299 26.8054 291.299 26.8054C291.364 27.26 291.525 27.5054 291.657 27.3494C291.789 27.1934 292.349 26.8533 292.393 27.196C292.393 27.196 292.393 27.196 292.299 27.2627C291.971 27.488 292.06 27.6533 292.351 27.788C292.527 27.8707 292.911 27.952 292.937 27.9134C293.369 27.2867 293.369 27.2867 293.369 27.2867C294.195 27.1707 295.025 26.8787 295.217 26.6374C295.217 26.6374 295.217 26.6374 295.463 26.512C295.685 26.3987 295.685 26.3987 295.685 26.3987C296.013 26.3827 296.543 26.3067 296.861 26.2307C297.181 26.1533 298.263 26.1773 298.836 26.088C298.836 26.088 298.836 26.088 299.16 26.5667C299.245 26.692 299.663 26.8227 299.736 26.772C300.197 26.4427 300.197 26.4427 300.197 26.4427C300.703 26.592 301.424 26.668 301.801 26.6107C302.179 26.5547 303.383 27.232 303.865 27.4414C304.349 27.652 305.904 27.4574 306.052 27.5374C306.052 27.5374 306.052 27.5374 306.193 27.6147C307.235 28.168 307.235 28.168 307.235 28.168C308.381 28.7747 309.48 29.4573 309.676 29.684C309.872 29.912 310.359 30.668 310.541 30.7653C310.724 30.8627 310.46 31.3187 310.453 31.3454C310.447 31.3694 310.401 31.9627 310.392 32.62C310.392 32.62 310.392 32.62 310.553 33.1933C310.636 33.488 310.959 33.7374 311.168 34.0107C311.377 34.2827 311.377 34.2827 311.377 34.2827C311.627 34.6147 311.669 35.04 311.473 35.228C311.473 35.228 311.473 35.228 311.239 35.2853C310.851 35.38 310.851 35.38 310.851 35.38C310.807 35.096 310.645 34.8547 310.492 34.8414C310.492 34.8414 310.492 34.8413 310.423 34.892C310.36 34.9373 310.425 35.148 310.389 35.156C310.192 35.2013 310.192 35.2014 310.192 35.2014C309.965 35.2147 309.808 35.164 309.848 35.0867C309.887 35.012 309.727 34.836 309.405 34.8694C309.081 34.904 308.66 34.136 308.385 34.0494C308.111 33.964 307.577 33.2094 307.392 33.08C307.205 32.948 306.533 32.7453 306.401 32.7867C306.269 32.8293 305.841 32.804 305.752 32.62C305.752 32.62 305.752 32.62 305.639 32.468C305.629 32.452 305.403 32.572 305.272 32.5774C305.069 32.584 305.069 32.584 305.069 32.584C304.843 32.552 304.232 32.4333 303.713 32.32C303.193 32.208 301.389 32.1507 300.861 32.208C300.335 32.2667 298.828 32.488 298.685 32.532C298.54 32.5773 297.879 32.6107 297.547 32.556C297.215 32.5027 296.037 32.8587 295.475 32.744C295.475 32.744 295.475 32.744 295.119 33.2067C295.096 33.236 295.011 33.252 294.963 33.244C294.292 33.1307 294.292 33.1307 294.292 33.1307C293.545 33.044 292.736 33.1534 292.489 33.3747C292.245 33.596 290.692 34.0014 289.993 34.18C289.993 34.18 289.993 34.18 289.371 34.3747C289.167 34.4387 288.853 33.7947 288.751 34.4573C288.681 34.9173 288.187 34.644 287.888 34.712C287.564 34.7854 287.564 34.7853 287.564 34.7853C287.207 34.86 286.695 34.8254 286.425 34.7094C286.156 34.5934 285.247 35.196 284.972 35.288C284.699 35.3787 283.456 35.6947 282.857 35.8187C282.857 35.8187 282.857 35.8187 282.341 35.984C281.409 36.2827 280.291 36.2454 279.599 37.004C279.508 37.104 279.508 37.104 279.508 37.104C279.185 37.08 278.5 37.052 277.985 37.0427C277.985 37.0427 277.985 37.0427 277.651 37.4213C277.539 37.548 277.539 37.548 277.539 37.548C277.273 37.596 276.851 37.648 276.599 37.6653C276.348 37.6813 275.696 38.1014 275.568 38.172C275.44 38.244 274.087 38.548 272.885 38.7827C272.885 38.7827 272.885 38.7827 271.969 39.3774C271.917 39.4107 271.523 38.872 271.399 39.504C271.357 39.704 271.357 39.704 271.357 39.704C270.864 39.8534 269.911 40.12 269.236 40.2987C268.561 40.4747 266.584 41.0027 266.284 40.9893C265.983 40.976 265.16 41.332 264.736 41.4867C264.311 41.6427 263.121 42.164 262.977 42.2267C262.833 42.2893 262.109 42.356 261.683 42.3827C261.256 42.412 260.137 42.9534 259.772 42.9454C259.407 42.936 257.885 43.8053 256.892 44.22C256.892 44.22 256.892 44.22 255.889 43.648C255.832 43.616 255.832 43.616 255.832 43.616C255.693 43.6774 255.201 43.8787 254.739 44.064C254.739 44.064 254.739 44.064 254.444 44.3947C253.955 44.944 253.032 44.52 252.392 45.0054C251.912 45.3667 251.912 45.3667 251.912 45.3667C251.057 45.48 249.971 45.6627 249.497 45.772C249.497 45.772 249.497 45.772 249.065 45.8667C248.381 46.016 248.381 46.016 248.381 46.016C248.097 45.7987 247.724 45.8427 247.549 46.1134C247.375 46.384 246.377 45.9627 246.253 45.9533C246.253 45.9533 246.253 45.9534 246.24 45.9814C246.14 46.1774 246.227 46.5467 245.789 46.436C245.476 46.3587 245.476 46.3587 245.476 46.3587C245.164 46.1107 244.864 46.02 244.809 46.1547C244.755 46.2907 243.764 46.472 242.752 46.556C242.752 46.556 242.752 46.556 241.964 46.324C241.357 46.1453 241.1 46.7627 240.569 46.4587C240.123 46.2013 240.123 46.2014 240.123 46.2014C239.541 46.0227 238.845 45.836 238.573 45.7867C238.301 45.736 237.483 45.5187 237.339 45.4613C237.195 45.404 236.705 44.86 236.472 44.452C236.472 44.452 236.472 44.452 236.239 44.44C235.479 44.4 235.479 44.4 235.479 44.4C235.604 44.036 235.375 43.2294 234.969 42.6054C234.969 42.6054 234.969 42.6054 234.527 42.0787C234.061 41.5214 234.061 41.5213 234.061 41.5213C233.817 40.7853 233.597 40.1307 233.572 40.0653C233.545 40 233.523 39.4694 233.471 38.9134C233.471 38.9134 233.471 38.9133 233.503 38.3947C233.553 37.5427 233.553 37.5427 233.553 37.5427C233.857 36.9587 234.24 36.2507 234.404 35.972C234.404 35.972 234.404 35.972 234.061 35.908C233.135 35.736 233.513 35.436 233.915 35.168C234.519 34.7654 235.005 34.2707 235.571 33.852C236.229 33.3627 236.051 32.808 236.072 32.2507C236.073 32.1933 236.073 32.1933 236.073 32.1933C235.943 32.1267 235.729 31.984 235.599 31.8787C235.469 31.772 236.149 31.3973 236.337 31.2973C236.337 31.2973 236.337 31.2974 236.436 31.168C236.731 30.7827 236.731 30.7827 236.731 30.7827C237.072 30.2747 237.409 30.0467 237.479 30.2774C237.479 30.2774 237.479 30.2774 237.527 30.4067C237.593 30.5867 236.851 30.664 237.428 30.88C237.512 30.912 237.748 30.7174 237.881 30.6014C237.993 30.504 238.057 30.3693 238.14 30.2507C238.533 29.696 238.533 29.696 238.533 29.696C237.903 29.4333 237.575 29.1947 237.803 29.168C238.032 29.14 238.645 28.9947 238.469 28.9293C238.292 28.8653 238.047 28.6387 238.191 28.5267C238.337 28.4133 238.993 28.32 238.993 28.052C238.993 27.784 239.149 26.9254 239.341 27.104C239.532 27.2827 239.844 27.4227 239.749 27.152C239.657 26.8813 240.257 26.2614 240.32 26.3027C240.383 26.3414 240.681 26.3987 240.707 26.252C240.733 26.1067 240.667 25.68 240.473 25.7867C240.473 25.7867 240.473 25.7867 240.361 25.7933C240.261 25.7987 240.061 25.6933 240.065 25.684C240.2 25.3867 240.2 25.3867 240.2 25.3867C240.379 25.0813 240.771 24.5307 241.073 24.1667C241.375 23.8013 242.629 22.4613 243.077 21.8667C243.077 21.8667 243.077 21.8667 243.312 21.2507C243.431 20.9373 243.431 20.9374 243.431 20.9374C243.653 20.628 244.011 20.324 244.223 20.264C244.435 20.204 244.673 19.8693 244.712 20.0307C244.751 20.1933 244.957 20.412 245.08 20.1547C245.201 19.9 244.879 19.2347 245.153 19.2227C245.428 19.2107 246.288 18.9013 246.561 18.6853C246.561 18.6853 246.561 18.6853 246.516 18.532C246.352 17.972 246.148 18.6253 246.008 18.5507C245.896 18.492 245.791 18.2373 245.841 18.1947C246.069 18.0027 246.069 18.0027 246.069 18.0027C246.375 17.8347 246.863 17.6307 247.155 17.5494C247.155 17.5494 247.155 17.5493 247.387 17.4307C247.509 17.368 247.651 17.1293 247.612 17.092C247.424 16.9147 247.079 16.8107 246.981 16.6187C246.908 16.4693 246.908 16.4694 246.908 16.4694C247.071 16.224 247.013 15.9694 246.78 15.9014C246.78 15.9014 246.78 15.9014 246.731 15.9494C246.333 16.3374 245.744 16.3987 245.264 16.6134C244.747 16.8454 244.212 16.0973 243.823 16.796C243.508 17.36 242.745 17.004 242.197 17.1147C241.992 17.156 241.809 17.3053 241.64 17.4293C241.153 17.7853 240.603 17.9374 239.943 18.012C239.357 18.0774 238.756 18.3067 238.264 18.5853C237.379 19.0867 237.379 19.0867 237.379 19.0867C236.304 19.5347 235.273 19.7867 235.085 19.6454C234.9 19.5054 234.303 19.1667 234.353 19.3387C234.404 19.512 234.504 19.972 234.475 20.0213C234.475 20.0213 234.475 20.0213 234.395 20.032C232.952 20.2453 232.952 20.2454 232.952 20.2454C231.719 21.0187 229.977 22.02 229.081 22.472C229.081 22.472 229.081 22.472 228.157 22.6587C227.716 22.7493 227.887 23.0267 227.712 23.16C227.561 23.276 227.315 23.3134 227.107 23.376C226.408 23.5867 225.665 23.7374 225.232 24.308C225.18 24.3747 225.18 24.3747 225.18 24.3747C225.051 24.4134 224.536 24.544 224.039 24.668C223.54 24.792 221.736 25.8813 220.953 26.4227C220.953 26.4227 220.953 26.4227 220.127 26.6707C217.863 27.348 217.863 27.348 217.863 27.348C215.743 28.5587 213.503 29.8213 212.887 30.1547C212.269 30.4893 210.313 31.4267 210.053 31.6987C210.053 31.6987 210.053 31.6987 209.761 31.756C209.037 31.8973 209.037 31.8973 209.037 31.8973C208.495 32.3213 207.851 32.8547 207.607 33.0827C207.361 33.3094 205.849 33.4747 205.216 33.7533C204.584 34.032 202.892 35.3667 202.529 35.6387C202.168 35.912 200.675 36.3334 200.428 36.4467C200.183 36.5587 198.915 37.4494 198.043 38.068C198.043 38.068 198.043 38.068 197.091 38.348C196.528 38.5134 196.528 38.5134 196.528 38.5134C196.275 38.8307 195.86 39.1707 195.607 39.2694C195.353 39.368 194.656 39.78 194.544 39.86C194.433 39.9387 193.963 40.0907 193.701 40.2267C193.443 40.3627 192.447 40.6827 191.936 40.8774C191.936 40.8774 191.936 40.8773 191.54 41.1507C190.757 41.6947 190.757 41.6947 190.757 41.6947C189.809 42.196 188.932 42.6707 188.807 42.7494C188.681 42.8254 187.82 43.0107 187.269 43.0973C187.269 43.0973 187.269 43.0973 186.812 43.26C186.404 43.4053 186.404 43.4054 186.404 43.4054C186.004 43.6587 185.325 44.0267 184.896 44.2213C184.896 44.2213 184.896 44.2214 184.507 44.4014C184.068 44.6014 183.392 44.7307 183.249 45.028C183.025 45.4907 183.025 45.4907 183.025 45.4907C182.627 45.4653 181.887 45.588 181.381 45.7667C180.876 45.944 178.649 46.7467 177.545 47.132C177.545 47.132 177.545 47.132 176.523 47.16C175.433 47.192 175.433 47.192 175.433 47.192C174.333 47.4173 172.36 47.62 171.047 47.64C171.047 47.64 171.047 47.64 170.027 47.1187C169.705 46.9547 169.705 46.9547 169.705 46.9547C169.509 47.024 169.14 46.9707 168.887 46.8374C168.887 46.8374 168.887 46.8374 168.773 46.7014C168.475 46.348 168.105 46.7747 168.008 46.6653C167.649 46.2627 167.649 46.2627 167.649 46.2627C167.34 45.7707 167.001 45.0973 166.899 44.7653C166.796 44.4333 165.844 43.7707 165.72 43.6853C165.72 43.6853 165.72 43.6853 165.736 43.628C165.912 42.9813 165.368 42.5867 165.028 42.096C164.707 41.632 164.672 41.0427 164.397 40.5507C164.004 39.8467 164.004 39.8467 164.004 39.8467C163.967 39.0334 163.944 37.7987 163.953 37.0987C163.953 37.0987 163.953 37.0987 164.352 36.608C164.829 36.0214 164.888 35.416 165.057 34.776C165.2 34.232 165.2 34.232 165.2 34.232C165.767 33.704 166.497 33.404 166.823 33.564C166.823 33.564 166.823 33.564 166.979 33.232C167.12 32.9347 167.12 32.9347 167.12 32.9347C167.127 32.5787 167.157 31.988 167.191 31.6227C167.191 31.6227 167.191 31.6227 167.639 31.4907C167.795 31.4453 167.795 31.4454 167.795 31.4454C168.107 31.4387 168.199 31.2827 167.997 31.096C167.997 31.096 167.997 31.096 167.837 31.0147C167.652 30.9174 167.652 30.9173 167.652 30.9173C167.392 30.844 167.483 30.752 167.857 30.716C168.232 30.68 168.831 30.068 168.639 30.044C168.448 30.02 168.117 29.7374 168.409 29.4787C168.7 29.22 168.763 28.0494 168.836 27.7094C168.909 27.3694 169.887 26.8267 169.8 26.596C169.8 26.596 169.8 26.596 169.893 26.5107C170.121 26.2987 170.121 26.2987 170.121 26.2987C170.393 26.0573 170.343 25.632 170.005 25.352C170.005 25.352 170.005 25.352 170.688 25.3533C171.337 25.3533 171.337 25.3533 171.337 25.3533C171.393 25.008 171.619 24.6734 171.837 24.608C171.837 24.608 171.837 24.608 171.836 24.548C171.829 24.316 171.829 24.316 171.829 24.316C171.749 24.0627 171.775 23.7693 171.888 23.6667C172.003 23.5627 172.227 23.1774 172.123 22.9414C172.123 22.9414 172.123 22.9413 172.335 22.7227C172.615 22.4347 172.615 22.4347 172.615 22.4347C172.895 22.1027 173.023 21.4347 172.899 20.948C172.899 20.948 172.899 20.948 173.672 20.9267C174.208 20.9133 174.208 20.9134 174.208 20.9134C174.419 20.58 174.619 20.192 174.651 20.0494C174.683 19.908 173.504 19.7667 171.941 20.1387C170.38 20.512 165.88 22.1973 165.079 22.5667C164.276 22.9347 161.549 23.632 161.033 23.7187C160.52 23.8053 159.349 24.9227 158.905 25.152C158.461 25.3827 156.835 26.024 156.344 26.1787C155.853 26.3334 154.612 27.1067 154.449 27.1907C154.288 27.272 153.297 27.4854 152.633 27.6387C152.633 27.6387 152.633 27.6387 152.268 28.1627C152.132 28.3613 152.132 28.3613 152.132 28.3613C151.731 28.4653 149.424 29.3027 147.005 30.2213C147.005 30.2213 147.005 30.2213 145.185 31.5867C144.78 31.8907 144.78 31.8907 144.78 31.8907C144.237 32.1667 143.509 32.456 143.16 32.532C142.812 32.6093 141.839 33.3573 141.565 33.524C141.292 33.6893 140.367 34.26 140.125 34.42C139.881 34.5813 139.116 35.036 138.984 35.1014C138.853 35.1667 138.184 35.3894 137.815 35.5027C137.815 35.5027 137.815 35.5027 137.117 36.104C136.931 36.2654 136.664 36.3867 136.407 36.4694C135.68 36.7 135.68 36.7 135.68 36.7C135.087 37.1653 133.825 37.8587 132.876 38.2414C132.876 38.2414 132.876 38.2413 132.188 38.8187C132.033 38.9467 132.033 38.9467 132.033 38.9467C131.811 39.0454 131.357 39.308 131.024 39.532C130.692 39.756 129.168 40.5107 128.591 40.9054C128.591 40.9054 128.591 40.9053 127.995 41.152C127.332 41.4253 127.332 41.4253 127.332 41.4253C126.676 41.8027 125.708 42.36 125.184 42.664C124.659 42.9707 122.937 43.696 122.756 43.8667C122.576 44.036 122.1 44.4507 122.456 44.7667C122.456 44.7667 122.456 44.7667 121.531 44.7173C121.252 44.7013 120.963 44.9867 120.656 45.0973C120.301 45.2253 119.891 45.2667 119.564 45.4267C119.264 45.5747 119.06 45.9894 118.787 46.008C117.823 46.0707 117.34 46.724 116.604 47.0533C115.169 47.696 113.776 48.4 112.383 49.1014C111.707 49.4414 111.707 49.4414 111.707 49.4414C110.991 49.8467 109.101 50.6294 107.507 51.18C107.507 51.18 107.507 51.18 106.3 52.0333C105.919 52.304 105.919 52.304 105.919 52.304C105.449 52.2534 104.568 52.4133 103.96 52.6547C103.352 52.8987 101.536 53.5174 101.172 53.336C101.172 53.336 101.172 53.336 100.931 53.8013C100.729 54.1933 100.201 54.0093 99.844 54.128C99.4827 54.2467 99.4827 54.2467 99.4827 54.2467C99.1267 54.4507 97.2227 55.184 95.252 55.872C95.252 55.872 95.252 55.872 93.3307 56.24C92.8893 56.3227 92.8893 56.3227 92.8893 56.3227C92.4 56.3867 91.804 56.4773 91.564 56.5253C91.324 56.5733 89.9427 56.8027 89.0107 56.8907C88.0787 56.9774 85.2453 56.9547 84.78 56.9173C84.3147 56.8787 82.8053 56.2653 82.3027 56.06C82.3027 56.06 82.3027 56.06 82.136 55.764C81.2693 54.2293 81.2693 54.2293 81.2693 54.2293C80.0653 52.6533 78.828 50.7893 78.5226 50.0853C78.5226 50.0853 78.5226 50.0854 78.256 49.44C77.9853 48.78 77.9853 48.78 77.9853 48.78C78.1693 48.104 78.24 47.3534 78.1413 47.1094C78.044 46.8654 78.0893 45.9107 78.1173 45.5107C78.144 45.1094 78.428 44.004 78.2506 43.8067C78.076 43.6107 78.8253 42.8027 79.0013 42.444C79.0013 42.444 79.0013 42.444 79.1226 42.0947C79.26 41.6987 79.328 41.2854 79.5 40.9014C79.6493 40.5627 79.6493 40.5627 79.6493 40.5627C79.8987 40.2147 80.228 39.576 80.3827 39.1427C80.3827 39.1427 80.3826 39.1427 80.584 38.772C80.696 38.564 80.916 38.3773 81.136 38.228C81.5293 37.9587 81.576 37.6187 81.696 37.2333C81.924 36.4973 82.3426 35.784 82.812 35.124C83.104 34.7147 83.656 34.4334 84.0573 34.0694C84.3533 33.8027 83.9187 33.148 84.8053 33.1387C84.9013 33.1387 84.996 32.636 85.0706 32.3613C85.0853 32.3027 85.0853 32.3027 85.0853 32.3027C85.028 32.2267 85.3347 31.8187 85.764 31.3987C86.1947 30.976 87.524 29.5974 87.6853 29.2067C87.8467 28.816 89.324 27.816 89.7 27.2467C89.7 27.2467 89.7 27.2467 89.9506 26.692C90.028 26.5213 90.0373 26.24 90.1733 26.1933C91.0786 25.884 91.104 25.16 91.4387 24.5774C91.4573 24.5427 91.4573 24.5427 91.4573 24.5427Z" fill="#2472c5"/>
</svg>
